<svg xmlns="http://www.w3.org/2000/svg">

  <symbol id="crown" viewBox="0 0 576 512">
    <!--! Font Awesome Pro 6.2.0 by @fontawesome - https://fontawesome.com License - https://fontawesome.com/license (Commercial License) Copyright 2022 Fonticons, Inc.-->
    <path d="M309 106c11.4-7 19-19.7 19-34 0-22.1-17.9-40-40-40s-40 17.9-40 40c0 14.4 7.6 27 19 34l-57.3 114.6c-9.1 18.2-32.7 23.4-48.6 10.7L72 160c5-6.7 8-15 8-24 0-22.1-17.9-40-40-40S0 113.9 0 136s17.9 40 40 40h.7l45.7 251.4c5.5 30.4 32 52.6 63 52.6h277.2c30.9 0 57.4-22.1 63-52.6L535.3 176h.7c22.1 0 40-17.9 40-40s-17.9-40-40-40-40 17.9-40 40c0 9 3 17.3 8 24l-89.1 71.3c-15.9 12.7-39.5 7.5-48.6-10.7L309 106z" />
  </symbol>

  <symbol id="medal" viewBox="0 0 24 24">
    <path d="M14.94 19.5L12 17.77L9.06 19.5L9.84 16.16L7.25 13.92L10.66 13.63L12 10.5L13.34 13.63L16.75 13.92L14.16 16.16M20 2H4V4L8.86 7.64A8 8 0 1 0 15.14 7.64L20 4M18 15A6 6 0 1 1 10.82 9.12A5.86 5.86 0 0 1 13.18 9.12A6 6 0 0 1 18 15M12.63 7H11.37L7.37 4H16.71Z" />
  </symbol>

  <symbol id="star" viewBox="0 0 20 20">
    <path d="M10 1l2.781 5.634L19 7.543l-4.5 4.383 1.062 6.192L10 15.193l-5.562 2.925L5.5 11.926 1 7.543l6.219-.909L10 1z" stroke-width="2" stroke-linecap="round" stroke-linejoin="round" />
  </symbol>

  <symbol id="course__half-curve" fill="none" viewBox="0 0 100 90" xmlns="http://www.w3.org/2000/svg">
    <g clip-path="url(#clip0_2_2)" width="100" height="90" stroke-linecap="round">
      <path d="M100 87H90C41.951 87 3 48.049 3 0v0" stroke="#fff" stroke-width="6" />
      <path d="M3 5.5v0c2.837 44.547 39 79.68 83.612 81.226L94.5 87" stroke="#0062BE" stroke-width="3" stroke-linejoin="round" stroke-dasharray="0.1 0" />
    </g>
  </symbol>

  <symbol id="course__curve" fill="none" viewBox="0 0 90 150" xmlns="http://www.w3.org/2000/svg">
    <g clip-path="url(#clip0_2_3)" stroke-linejoin="round" stroke-dasharray="0.1 0">
      <path d="M3 3h12c39.764 0 72 32.236 72 72v0c0 39.765-32.236 72-72 72H3" stroke="#fff" stroke-width="6" stroke-linecap="square" />
      <path d="M4 3l12.21.174c33.744.482 62.602 24.388 69.355 57.453v0a71.835 71.835 0 0 1 0 28.746v0c-6.753 33.065-35.611 56.971-69.355 57.453L4 147" stroke="#0062BE" stroke-width="3" stroke-linecap="round" />
    </g>
  </symbol>
</svg>
