<svg xmlns:mydata="http://www.w3.org/2000/svg" mydata:contrastcolor="00617F"
  mydata:template="Contrast" mydata:presentation="2.5" mydata:layouttype="undefined"
  mydata:specialfontid="undefined" mydata:id1="046" mydata:id2="717" mydata:companyname="AVAG"
  mydata:companytagline="" version="1.1" xmlns="http://www.w3.org/2000/svg"
  xmlns:xlink="http://www.w3.org/1999/xlink" style="height: 763px;" viewBox="0 0 550 470">
  <g fill="#101820" fill-rule="nonzero" stroke="none" stroke-width="1" stroke-linecap="butt"
    stroke-linejoin="miter" stroke-miterlimit="10" stroke-dasharray="" stroke-dashoffset="0"
    font-family="none" font-weight="none" font-size="none" text-anchor="none"
    style="mix-blend-mode: normal">
    <g
      data-paper-data="{&quot;isGlobalGroup&quot;:true,&quot;bounds&quot;:{&quot;x&quot;:96.58789415493587,&quot;y&quot;:188.38753739094037,&quot;width&quot;:356.8242116901283,&quot;height&quot;:93.2249252181193}}">
      <g data-paper-data="{&quot;isPrimaryText&quot;:true}" id="element-id-71509">
        <path
          d="M151.59318,190.45346c3.52929,7.48898 6.99402,15.30077 10.39419,23.43535c3.40017,8.13458 6.6497,16.14005 9.74859,24.01639c3.09889,7.87634 5.96106,15.42989 8.58651,22.66063c2.62545,7.23074 4.9281,13.68676 6.90794,19.36806h-22.20871c-1.72161,-5.16482 -3.59385,-10.73851 -5.61674,-16.72109c-2.02289,-5.98258 -4.08881,-11.94364 -6.19778,-17.88317c-2.10897,-5.93954 -4.17489,-11.62084 -6.19778,-17.04389c-2.02289,-5.42306 -3.85209,-10.11443 -5.48762,-14.07412c-1.72161,3.95969 -3.59385,8.65107 -5.61674,14.07412c-2.02289,5.42306 -4.06729,11.10435 -6.13322,17.04389c-2.06593,5.93954 -4.11033,11.9006 -6.13322,17.88317c-2.02289,5.98258 -3.89513,11.55628 -5.61674,16.72109h-21.43399c1.89377,-5.6813 4.15337,-12.13732 6.77882,-19.36806c2.62545,-7.23074 5.48762,-14.80581 8.58651,-22.72519c3.09889,-7.91938 6.36994,-15.92485 9.81315,-24.01639c3.44321,-8.09154 6.92946,-15.88181 10.45875,-23.37079z"
          data-paper-data="{&quot;glyphName&quot;:&quot;Λ&quot;,&quot;glyphIndex&quot;:0,&quot;firstGlyphOfWord&quot;:true,&quot;word&quot;:1}"
          id="element-id-73361"></path>
        <path
          d="M225.45005,279.9339c-3.52929,-7.48898 -7.01554,-15.27925 -10.45875,-23.37079c-3.44321,-8.09154 -6.71426,-16.09701 -9.81315,-24.01639c-3.09889,-7.91938 -5.96106,-15.49445 -8.58651,-22.72519c-2.62545,-7.23074 -4.88505,-13.68676 -6.77882,-19.36806h22.20871c1.72161,5.16482 3.59385,10.73851 5.61674,16.72109c2.02289,5.98258 4.08881,11.94364 6.19778,17.88317c2.10897,5.93954 4.15337,11.62084 6.13322,17.04389c1.97985,5.42306 3.83057,10.11443 5.55218,14.07412c1.63553,-3.95969 3.46473,-8.65107 5.48762,-14.07412c2.02289,-5.42306 4.08881,-11.10435 6.19778,-17.04389c2.10897,-5.93954 4.17489,-11.9006 6.19778,-17.88317c2.02289,-5.98258 3.89513,-11.55628 5.61674,-16.72109h21.43399c-1.97985,5.6813 -4.26097,12.13732 -6.84338,19.36806c-2.58241,7.23074 -5.42306,14.80581 -8.52195,22.72519c-3.09889,7.91938 -6.36994,15.92485 -9.81315,24.01639c-3.44321,8.09154 -6.92946,15.88181 -10.45875,23.37079z"
          data-paper-data="{&quot;glyphName&quot;:&quot;V&quot;,&quot;glyphIndex&quot;:1,&quot;word&quot;:1}"
          id="element-id-78145"></path>
        <path
          d="M338.04303,190.45346c3.52929,7.48898 6.99402,15.30077 10.39419,23.43535c3.40017,8.13458 6.6497,16.14005 9.74859,24.01639c3.09889,7.87634 5.96106,15.42989 8.58651,22.66063c2.62545,7.23074 4.9281,13.68676 6.90794,19.36806h-22.20871c-1.72161,-5.16482 -3.59385,-10.73851 -5.61674,-16.72109c-2.02289,-5.98258 -4.08881,-11.94364 -6.19778,-17.88317c-2.10897,-5.93954 -4.17489,-11.62084 -6.19778,-17.04389c-2.02289,-5.42306 -3.85209,-10.11443 -5.48762,-14.07412c-1.72161,3.95969 -3.59385,8.65107 -5.61674,14.07412c-2.02289,5.42306 -4.06729,11.10435 -6.13322,17.04389c-2.06593,5.93954 -4.11033,11.9006 -6.13322,17.88317c-2.02289,5.98258 -3.89513,11.55628 -5.61674,16.72109h-21.43399c1.89377,-5.6813 4.15337,-12.13732 6.77882,-19.36806c2.62545,-7.23074 5.48762,-14.80581 8.58651,-22.72519c3.09889,-7.91938 6.36994,-15.92485 9.81315,-24.01639c3.44321,-8.09154 6.92946,-15.88181 10.45875,-23.37079z"
          data-paper-data="{&quot;glyphName&quot;:&quot;Λ&quot;,&quot;glyphIndex&quot;:2,&quot;word&quot;:1}"
          id="element-id-18757"></path>
        <path
          d="M444.63192,237.45329h8.78019v39.8982c-1.63553,0.68864 -4.84201,1.57096 -9.61947,2.64697c-4.77745,1.076 -10.65243,1.614 -17.62493,1.614c-5.85346,0 -11.27651,-1.03296 -16.26917,-3.09889c-4.99266,-2.06593 -9.31819,-5.05722 -12.9766,-8.97387c-3.65841,-3.91665 -6.52058,-8.78019 -8.58651,-14.5906c-2.06593,-5.81042 -3.09889,-12.46012 -3.09889,-19.9491c0,-7.48898 1.11904,-14.13868 3.35713,-19.9491c2.23809,-5.81042 5.27242,-10.67395 9.10299,-14.5906c3.83057,-3.91665 8.28523,-6.90794 13.36396,-8.97387c5.07874,-2.06593 10.50179,-3.09889 16.26917,-3.09889c6.62818,0 12.09428,0.71016 16.39829,2.13049c4.30401,1.42032 7.44594,2.77609 9.42579,4.06729l-2.96977,7.48898c-2.41025,-1.72161 -5.6813,-3.12041 -9.81315,-4.19641c-4.13185,-1.076 -8.60803,-1.614 -13.42852,-1.614c-4.47617,0 -8.69411,0.81776 -12.6538,2.45329c-3.95969,1.63553 -7.4029,4.08881 -10.32963,7.35986c-2.92673,3.27105 -5.22938,7.31682 -6.90794,12.13732c-1.67857,4.82049 -2.51785,10.41571 -2.51785,16.78565c0,5.93954 0.68864,11.29803 2.06593,16.07549c1.37728,4.77745 3.46473,8.86627 6.26234,12.26644c2.79761,3.40017 6.26234,6.0041 10.39419,7.81178c4.13185,1.80769 8.90931,2.71153 14.33236,2.71153c4.39009,0 8.07002,-0.23672 11.03979,-0.71016c2.96977,-0.47344 4.97114,-0.92536 6.0041,-1.35576z"
          data-paper-data="{&quot;glyphName&quot;:&quot;G&quot;,&quot;glyphIndex&quot;:3,&quot;lastGlyphOfWord&quot;:true,&quot;fontStyleEffect&quot;:true,&quot;word&quot;:1}"
          id="element-id-68091"></path>
      </g>
    </g>
  </g>
  <rect data-element-id="element-id-71509" stroke-width="2" fill="transparent"
    class="invisible-element-box grouping-element" x="97" y="188" width="357" height="93"
    data-element-name="isPrimaryText"></rect>
  <rect data-element-id="element-id-73361" stroke-width="2" fill="transparent"
    class="invisible-element-box individual-element" x="97" y="190" width="91" height="89"></rect>
  <rect data-element-id="element-id-78145" stroke-width="2" fill="transparent"
    class="invisible-element-box individual-element" x="190" y="190" width="91" height="89"></rect>
  <rect data-element-id="element-id-18757" stroke-width="2" fill="transparent"
    class="invisible-element-box individual-element" x="283" y="190" width="91" height="89"></rect>
  <rect data-element-id="element-id-68091" stroke-width="2" fill="transparent"
    class="invisible-element-box individual-element" x="385" y="188" width="68" height="93"></rect>
</svg>