<svg xmlns="http://www.w3.org/2000/svg">

  <symbol id="crown" viewBox="0 0 576 512">
    <!--! Font Awesome Pro 6.2.0 by @fontawesome - https://fontawesome.com License - https://fontawesome.com/license (Commercial License) Copyright 2022 Fonticons, Inc.-->
    <path d="M309 106c11.4-7 19-19.7 19-34 0-22.1-17.9-40-40-40s-40 17.9-40 40c0 14.4 7.6 27 19 34l-57.3 114.6c-9.1 18.2-32.7 23.4-48.6 10.7L72 160c5-6.7 8-15 8-24 0-22.1-17.9-40-40-40S0 113.9 0 136s17.9 40 40 40h.7l45.7 251.4c5.5 30.4 32 52.6 63 52.6h277.2c30.9 0 57.4-22.1 63-52.6L535.3 176h.7c22.1 0 40-17.9 40-40s-17.9-40-40-40-40 17.9-40 40c0 9 3 17.3 8 24l-89.1 71.3c-15.9 12.7-39.5 7.5-48.6-10.7L309 106z" />
  </symbol>

  <symbol id="medal" viewBox="0 0 24 24">
    <path d="M14.94 19.5L12 17.77L9.06 19.5L9.84 16.16L7.25 13.92L10.66 13.63L12 10.5L13.34 13.63L16.75 13.92L14.16 16.16M20 2H4V4L8.86 7.64A8 8 0 1 0 15.14 7.64L20 4M18 15A6 6 0 1 1 10.82 9.12A5.86 5.86 0 0 1 13.18 9.12A6 6 0 0 1 18 15M12.63 7H11.37L7.37 4H16.71Z" />
  </symbol>

  <symbol id="star" viewBox="0 0 20 20">
    <path d="M10 1l2.781 5.634L19 7.543l-4.5 4.383 1.062 6.192L10 15.193l-5.562 2.925L5.5 11.926 1 7.543l6.219-.909L10 1z" stroke-width="2" stroke-linecap="round" stroke-linejoin="round" />
  </symbol>
</svg>
