<svg xmlns:mydata="http://www.w3.org/2000/svg" mydata:contrastcolor="11111f"
  mydata:template="Contrast" mydata:presentation="2.5" mydata:layouttype="undefined"
  mydata:specialfontid="undefined" mydata:id1="005" mydata:id2="472" mydata:companyname="AVAG"
  mydata:companytagline="" version="1.1" xmlns="http://www.w3.org/2000/svg"
  xmlns:xlink="http://www.w3.org/1999/xlink" style="height: 763px;" viewBox="0 0 550 470">
  <g fill="#68d2df" fill-rule="evenodd" stroke="none" stroke-width="1" stroke-linecap="butt"
    stroke-linejoin="miter" stroke-miterlimit="10" stroke-dasharray="" stroke-dashoffset="0"
    font-family="none" font-weight="none" font-size="none" text-anchor="none"
    style="mix-blend-mode: normal">
    <g
      data-paper-data="{&quot;isGlobalGroup&quot;:true,&quot;bounds&quot;:{&quot;x&quot;:146,&quot;y&quot;:106,&quot;width&quot;:258,&quot;height&quot;:258}}">
      <g
        data-paper-data="{&quot;fillRule&quot;:&quot;evenodd&quot;,&quot;fillRuleOriginal&quot;:&quot;evenodd&quot;,&quot;isIcon&quot;:true,&quot;iconStyle&quot;:&quot;standalone&quot;,&quot;selectedEffects&quot;:{&quot;container&quot;:&quot;&quot;,&quot;transformation&quot;:&quot;&quot;,&quot;pattern&quot;:&quot;&quot;},&quot;bounds&quot;:{&quot;x&quot;:199.2583432354759,&quot;y&quot;:159.2583436341162,&quot;width&quot;:151.48329758343712,&quot;height&quot;:151.4833127317676},&quot;iconType&quot;:&quot;icon&quot;,&quot;rawIconId&quot;:&quot;984468&quot;,&quot;isDetailed&quot;:false,&quot;suitableAsStandaloneIcon&quot;:true}"
        id="element-id-80833">
        <path
          d="M318.99351,203.42903c-6.95222,0.03313 -13.15528,2.10211 -18.60917,6.20694c4.12466,-5.48419 6.18699,-11.75172 6.18699,-18.80259c0.00197,-8.70388 -3.08256,-16.14214 -9.2536,-22.31479c-6.1719,-6.1735 -13.61176,-9.26025 -22.31959,-9.26025c-8.70549,0 -16.14448,3.08681 -22.317,9.26043c-6.17202,6.17313 -9.25803,13.61194 -9.25803,22.31644c0.00185,7.01614 2.0691,13.27277 6.20176,18.76989c-5.48911,-4.12257 -11.75295,-6.18384 -18.7915,-6.18384c-8.70537,0 -16.14436,3.08675 -22.317,9.26025c-6.17202,6.17276 -9.25803,13.61102 -9.25803,22.31479c0,8.70918 3.08601,16.15028 9.25803,22.32328c6.17165,6.17276 13.61065,9.25914 22.317,9.25914c0.04003,0 0.08005,-0.0013 0.12008,-0.00388c6.96589,-0.02353 13.18176,-2.09053 18.64759,-6.20102c-4.12232,5.48997 -6.18347,11.75363 -6.18347,18.79095c0.00098,8.70573 3.08768,16.1448 9.26006,22.31719c6.17313,6.17313 13.6133,9.2597 22.32051,9.2597c8.70734,0 16.14714,-3.08668 22.3194,-9.26006c6.17165,-6.17276 9.25748,-13.61231 9.25748,-22.31866c0,-0.04003 -0.0013,-0.07999 -0.00388,-0.11989c-0.02353,-6.96922 -2.0949,-13.19013 -6.21414,-18.66274c5.48997,4.13106 11.75985,6.19659 18.80961,6.19659c8.70573,0.00098 16.14473,-3.08447 22.317,-9.25637c6.17202,-6.17178 9.25803,-13.61071 9.25803,-22.31682c0,-8.70721 -3.08613,-16.14763 -9.2584,-22.32125c-6.17276,-6.17411 -13.61287,-9.26117 -22.32032,-9.26117c-0.05665,0 -0.11312,0.00258 -0.1694,0.00776zM319.32345,207.11635c-0.05345,0.00468 -0.10696,0.00702 -0.16053,0.00702c-6.86207,0 -12.90071,2.23998 -18.11593,6.71995c-0.08756,0.07513 -0.18135,0.14151 -0.28135,0.19915c-0.1,0.05764 -0.2045,0.10549 -0.31349,0.14354c-0.10887,0.03805 -0.22039,0.06565 -0.33456,0.08276c-0.11417,0.01712 -0.22889,0.02353 -0.34416,0.01922c-0.1154,-0.00443 -0.22932,-0.01946 -0.34176,-0.04507c-0.11257,-0.02574 -0.22174,-0.0617 -0.32754,-0.10789c-0.10579,-0.04619 -0.20635,-0.10179 -0.30167,-0.16681c-0.09532,-0.06502 -0.18381,-0.13836 -0.26547,-0.22002l-2.26486,-2.26486c-0.08165,-0.08165 -0.15499,-0.17014 -0.22002,-0.26547c-0.06502,-0.09545 -0.12063,-0.19606 -0.16681,-0.30186c-0.04619,-0.10579 -0.08215,-0.21497 -0.10789,-0.32754c-0.02574,-0.11257 -0.04076,-0.22648 -0.04507,-0.34176c-0.00431,-0.1154 0.00209,-0.23018 0.01922,-0.34434c0.01724,-0.11417 0.04489,-0.22575 0.08294,-0.33474c0.03805,-0.10899 0.0859,-0.21349 0.14354,-0.31349c0.05776,-0.1 0.12427,-0.19379 0.19951,-0.28135c4.46605,-5.19551 6.69907,-11.24197 6.69907,-18.13938c0.00173,-7.68402 -2.72221,-14.2515 -8.17178,-19.70243c-5.45045,-5.45192 -12.01934,-8.17788 -19.70668,-8.17788c-7.68513,0 -14.25322,2.72603 -19.70428,8.17807c-5.45069,5.45167 -8.17603,12.01971 -8.17603,19.7041c0.00173,6.86158 2.24238,12.90096 6.72198,18.11815c0.07513,0.08744 0.14151,0.18117 0.19915,0.28117c0.05751,0.09988 0.1053,0.20425 0.14336,0.31312c0.03805,0.10887 0.06565,0.22039 0.08276,0.33456c0.01712,0.11404 0.02353,0.22864 0.01922,0.34379c-0.00431,0.11528 -0.01934,0.22913 -0.04507,0.34158c-0.02562,0.11245 -0.06146,0.22156 -0.10752,0.32736c-0.04606,0.10567 -0.10155,0.20617 -0.16645,0.30149c-0.0649,0.09545 -0.13812,0.18394 -0.21965,0.26547l-2.25932,2.26301c-0.08165,0.08178 -0.17014,0.15524 -0.26547,0.22039c-0.09532,0.06502 -0.19588,0.12069 -0.30167,0.167c-0.10579,0.04631 -0.21497,0.08233 -0.32754,0.10807c-0.11257,0.02587 -0.22655,0.04101 -0.34194,0.04544c-0.1154,0.00443 -0.23018,-0.00191 -0.34434,-0.01903c-0.11417,-0.01712 -0.22575,-0.0447 -0.33474,-0.08276c-0.10912,-0.03805 -0.21367,-0.0859 -0.31368,-0.14354c-0.1,-0.05764 -0.19385,-0.12402 -0.28154,-0.19915c-5.20573,-4.47023 -11.25305,-6.70536 -18.14197,-6.70536c-7.68501,0 -14.2531,2.72596 -19.70428,8.17788c-5.45069,5.45143 -8.17603,12.01891 -8.17603,19.70243c0,7.68907 2.72534,14.25938 8.17603,19.71093c5.42335,5.42421 11.95351,8.14974 19.59049,8.17659c0.03793,-0.00234 0.07586,-0.00351 0.11379,-0.00351c6.86072,0 12.89997,-2.24115 18.11777,-6.72346c0.08756,-0.07525 0.18141,-0.14175 0.28154,-0.19951c0.1,-0.05764 0.2045,-0.10549 0.31349,-0.14354c0.10912,-0.03805 0.22076,-0.06565 0.33493,-0.08276c0.11417,-0.01712 0.22895,-0.02346 0.34434,-0.01903c0.1154,0.00443 0.22938,0.01958 0.34194,0.04544c0.11257,0.02574 0.22181,0.06176 0.32772,0.10807c0.10579,0.04619 0.20635,0.10185 0.30167,0.167c0.09532,0.06515 0.18381,0.13861 0.26547,0.22039l2.25932,2.26301c0.08141,0.08153 0.15457,0.16996 0.21947,0.26528c0.06502,0.09532 0.12057,0.19588 0.16663,0.30167c0.04606,0.10567 0.0819,0.21473 0.10752,0.32717c0.02574,0.11245 0.04076,0.2263 0.04507,0.34158c0.00431,0.11528 -0.00209,0.22994 -0.01922,0.34398c-0.01712,0.11404 -0.0447,0.2255 -0.08276,0.33437c-0.03793,0.10887 -0.08572,0.21324 -0.14336,0.31312c-0.05751,0.1 -0.12384,0.19372 -0.19896,0.28117c-4.46913,5.20659 -6.70369,11.25342 -6.70369,18.1405c0.00086,7.68526 2.72688,14.25347 8.17807,19.70465c5.45167,5.45167 12.02094,8.17752 19.7078,8.17752c7.68697,0 14.25587,-2.7259 19.70668,-8.1777c5.42347,-5.42446 8.14857,-11.95536 8.1753,-19.5927c-0.00234,-0.03781 -0.00351,-0.07568 -0.00351,-0.11361c0,-6.85554 -2.24072,-12.89375 -6.72216,-18.11463c-0.07513,-0.08744 -0.14151,-0.18117 -0.19915,-0.28117c-0.05751,-0.1 -0.1053,-0.20444 -0.14336,-0.31331c-0.03793,-0.10899 -0.06546,-0.22051 -0.08257,-0.33456c-0.01712,-0.11404 -0.02353,-0.2287 -0.01922,-0.34398c0.00443,-0.11528 0.01946,-0.22913 0.04507,-0.34158c0.02574,-0.11257 0.06164,-0.22168 0.1077,-0.32736c0.04619,-0.10579 0.10179,-0.20635 0.16681,-0.30167c0.0649,-0.09532 0.13812,-0.18375 0.21965,-0.26528l2.26486,-2.26671c0.08165,-0.08165 0.17014,-0.15506 0.26547,-0.2202c0.09545,-0.06502 0.19606,-0.12069 0.30186,-0.167c0.10579,-0.04619 0.21497,-0.08215 0.32754,-0.10789c0.11257,-0.02574 0.22655,-0.04082 0.34194,-0.04526c0.1154,-0.00431 0.23018,0.00209 0.34434,0.01922c0.11417,0.01712 0.22575,0.0447 0.33474,0.08276c0.10899,0.03805 0.21349,0.08597 0.31349,0.14373c0.10013,0.05764 0.19397,0.12408 0.28154,0.19933c5.20117,4.46986 11.24831,6.7048 18.14142,6.7048c7.68562,0.00086 14.25378,-2.72393 19.70447,-8.17437c5.45057,-5.45032 8.17585,-12.01835 8.17585,-19.7041c0,-7.6871 -2.72553,-14.25674 -8.17659,-19.7089c-5.41337,-5.4146 -11.929,-8.14075 -19.54689,-8.17843zM282.29705,190.83522c0,2.02039 -0.71185,3.74016 -2.13554,5.1593l-0.00222,0.00222c-0.17316,0.17328 -0.3066,0.3731 -0.40032,0.59946c-0.09372,0.22624 -0.14058,0.46184 -0.14058,0.7068c0,0.24508 0.04692,0.48075 0.14077,0.70698c0.09372,0.22636 0.22722,0.42612 0.40051,0.59928l6.47129,6.46944l0.00018,0.00018c0.08584,0.08572 0.1792,0.16226 0.28006,0.22963c0.10087,0.06736 0.20734,0.12427 0.31941,0.1707c0.11207,0.04643 0.2276,0.08141 0.34656,0.10493c0.11897,0.02365 0.23911,0.03547 0.36042,0.03547c0.12131,0 0.24145,-0.01188 0.36042,-0.03565c0.11897,-0.02365 0.23443,-0.05868 0.34638,-0.10511c0.11207,-0.04643 0.21854,-0.10339 0.31941,-0.17088c0.10087,-0.06736 0.19416,-0.14397 0.27987,-0.22981c3.93081,-3.93302 5.89621,-8.68067 5.89621,-14.24294c0,-5.56116 -1.96627,-10.30801 -5.8988,-14.24054c-3.9329,-3.9329 -8.68055,-5.89935 -14.24294,-5.89935c-5.56104,0 -10.30789,1.9662 -14.24054,5.89861c-3.93105,3.93081 -5.8975,8.67531 -5.89935,14.23352v0.00998c0.00185,5.55673 1.96861,10.30314 5.90027,14.23925l5.16318,5.16281l-29.92682,29.91795c-1.43219,1.42764 -3.15455,2.14146 -5.16706,2.14146c-0.0362,0 -0.07242,0.00105 -0.10862,0.00314c-4.78983,-0.04003 -7.18474,-2.47528 -7.18474,-7.30574c0,-4.86348 2.43297,-7.29522 7.29891,-7.29522c2.01436,0 3.73566,0.71339 5.16391,2.14016c0.08572,0.08572 0.17901,0.1622 0.27987,0.22944c0.10099,0.06736 0.20752,0.12427 0.31959,0.1707c0.11207,0.04631 0.22754,0.08129 0.34638,0.10493c0.11897,0.02353 0.23911,0.03529 0.36042,0.03529c0.12131,0 0.24145,-0.01188 0.36042,-0.03565c0.11885,-0.02365 0.23431,-0.05875 0.34638,-0.1053c0.11207,-0.04643 0.21848,-0.10333 0.31922,-0.1707c0.10087,-0.06736 0.19416,-0.14397 0.27987,-0.22981l6.46944,-6.47314l0.00074,-0.00074c0.08572,-0.08584 0.1622,-0.1792 0.22944,-0.28006c0.06736,-0.10099 0.1242,-0.20752 0.17051,-0.31959c0.04631,-0.11207 0.08129,-0.2276 0.10493,-0.34656c0.02353,-0.11897 0.03522,-0.23911 0.0351,-0.36042c-0.00012,-0.12131 -0.01207,-0.24145 -0.03584,-0.36042c-0.02377,-0.11897 -0.05887,-0.23449 -0.1053,-0.34656c-0.04655,-0.11195 -0.10358,-0.21836 -0.17106,-0.31922c-0.06749,-0.10074 -0.14416,-0.19397 -0.23,-0.27969c-3.93684,-3.93032 -8.68486,-5.89547 -14.24405,-5.89547c-5.56239,0 -10.30973,1.96614 -14.24201,5.89843c-3.93192,3.93192 -5.89787,8.67846 -5.89787,14.23961c0,5.56313 1.96559,10.31152 5.89677,14.24516c3.93229,3.93475 8.67999,5.90212 14.24313,5.90212c0.04076,0 0.08147,-0.00136 0.12211,-0.00407c5.50303,-0.02993 10.20948,-1.99657 14.11935,-5.8999l5.16059,-5.16023l29.91795,29.9198c1.42788,1.43712 2.14182,3.16083 2.14182,5.17112c0,0.0362 0.00105,0.07242 0.00314,0.10862c-0.0399,4.7886 -2.47331,7.18289 -7.3002,7.18289c-4.86594,0 -7.29891,-2.43297 -7.29891,-7.29891c0,-2.01522 0.7124,-3.73671 2.13721,-5.16447c0.0856,-0.08584 0.16201,-0.1792 0.22925,-0.28006c0.06724,-0.10087 0.12402,-0.20734 0.17033,-0.31941c0.04631,-0.11207 0.08123,-0.2276 0.10474,-0.34656c0.02365,-0.11885 0.03541,-0.23893 0.03529,-0.36023c-0.00012,-0.12119 -0.01201,-0.24127 -0.03565,-0.36023c-0.02377,-0.11885 -0.05887,-0.23425 -0.1053,-0.34619c-0.04643,-0.11207 -0.10333,-0.21848 -0.1707,-0.31922c-0.06749,-0.10074 -0.14409,-0.19397 -0.22981,-0.27969l-6.46944,-6.46575c-0.08572,-0.08572 -0.17901,-0.16226 -0.27987,-0.22963c-0.10087,-0.06736 -0.20727,-0.1242 -0.31922,-0.17051c-0.11207,-0.04643 -0.2276,-0.08147 -0.34656,-0.10511c-0.11885,-0.02365 -0.23893,-0.03547 -0.36023,-0.03547c-0.12131,0 -0.24139,0.01182 -0.36023,0.03547c-0.11897,0.02365 -0.23449,0.05868 -0.34656,0.10511c-0.11195,0.04631 -0.21836,0.10314 -0.31922,0.17051c-0.10087,0.06736 -0.19416,0.14391 -0.27987,0.22963c-3.93376,3.93154 -5.90065,8.67883 -5.90065,14.24183c0,5.56054 1.96639,10.30714 5.89917,14.2398c3.93327,3.93339 8.68141,5.90009 14.24442,5.90009c5.56042,0 10.30758,-1.96614 14.24146,-5.89843c3.93475,-3.93315 5.90212,-8.6803 5.90212,-14.24146c0,-0.04076 -0.00136,-0.08153 -0.00407,-0.12229c-0.03042,-5.50624 -1.99761,-10.21133 -5.90157,-14.11529l-5.15893,-5.16023l29.9246,-29.9211c1.4338,-1.42616 3.15726,-2.13924 5.17038,-2.13924c0.0362,0 0.07242,-0.00105 0.10862,-0.00314c4.78613,0.04003 7.1792,2.47404 7.1792,7.30205c0,4.86594 -2.43174,7.29891 -7.29522,7.29891c-2.01583,0 -3.7369,-0.71314 -5.16318,-2.13942l-0.00037,-0.00037c-0.08584,-0.08572 -0.1792,-0.16226 -0.28006,-0.22963c-0.10087,-0.06736 -0.20734,-0.12427 -0.31941,-0.1707c-0.11207,-0.04643 -0.2276,-0.08141 -0.34656,-0.10493c-0.11897,-0.02365 -0.23911,-0.03547 -0.36042,-0.03547c-0.12131,0 -0.24145,0.01188 -0.36042,0.03565c-0.11897,0.02365 -0.23443,0.05868 -0.34638,0.10511c-0.11207,0.04643 -0.21854,0.10339 -0.31941,0.17088c-0.10087,0.06736 -0.19416,0.14397 -0.27987,0.22981l-6.46575,6.46944c-0.08572,0.08572 -0.16226,0.17901 -0.22963,0.27987c-0.06736,0.10087 -0.12427,0.20734 -0.1707,0.31941c-0.04631,0.11207 -0.08129,0.2276 -0.10493,0.34656c-0.02365,0.11897 -0.03547,0.23905 -0.03547,0.36023c0,0.12131 0.01182,0.24145 0.03547,0.36042c0.02377,0.11897 0.05881,0.23443 0.10511,0.34638c0.04643,0.11207 0.10339,0.21854 0.17088,0.31941c0.06736,0.10087 0.14391,0.19416 0.22963,0.27987c3.93229,3.93229 8.67944,5.89843 14.24146,5.89843c5.5603,0 10.3069,-1.9662 14.2398,-5.89861c3.93339,-3.93278 5.90009,-8.67987 5.90009,-14.24128c0,-5.5619 -1.96614,-10.30979 -5.89843,-14.24368c-3.93278,-3.9345 -8.67993,-5.90175 -14.24146,-5.90175c-0.04076,0 -0.08153,0.00136 -0.12229,0.00407c-5.50303,0.03042 -10.20813,1.997 -14.11529,5.89972l-5.16373,5.16281l-29.92368,-29.93088c-1.42703,-1.42554 -2.14053,-3.14629 -2.14053,-5.16226c0.00529,-4.8636 2.43827,-7.2954 7.29891,-7.2954c4.86717,0 7.30075,2.43297 7.30075,7.29891zM274.99094,219.32535l-15.6752,15.67427l15.67409,15.67778l15.67667,-15.67205z"
          data-paper-data="{&quot;isPathIcon&quot;:true}" id="element-id-4374"></path>
      </g>
      <g data-paper-data="{&quot;isContainerElementsWrapper&quot;:true}" id="element-id-19486">
        <path
          d="M146,235c0,-71.24473 57.75526,-129 129,-129c71.24499,0 129,57.75527 129,129c0,71.24499 -57.75501,129 -129,129c-71.24474,0 -129,-57.75501 -129,-129zM270.05387,122.66645l-5.68601,16.4482c-0.08989,0.25393 -0.24347,0.4684 -0.46083,0.64341c-0.21726,0.175 -0.4679,0.28004 -0.75194,0.31532c-0.27646,0.03438 -0.54145,-0.00668 -0.79499,-0.12318c-0.25344,-0.1165 -0.45864,-0.28642 -0.6153,-0.50976l-9.52551,-14.55904l3.26207,-0.40512l7.08772,10.8779l4.23396,-12.284zM291.4186,140.31296l2.91675,0.34343l1.72083,-14.61744c0.02392,-0.20191 0.00897,-0.39705 -0.04485,-0.5853c-0.05382,-0.18826 -0.13952,-0.35768 -0.25912,-0.50817c-0.1186,-0.15049 -0.2631,-0.27367 -0.43352,-0.36954c-0.17075,-0.09594 -0.35715,-0.1558 -0.55919,-0.17959l-6.57388,-0.77386c-1.15925,-0.13643 -2.25202,-0.06418 -3.27842,0.21686c-1.0264,0.28104 -1.94038,0.73459 -2.74205,1.36056c-0.8016,0.62593 -1.46241,1.40876 -1.98244,2.34849c-0.52009,0.93966 -0.84924,1.99656 -0.98743,3.17069l-0.94697,8.04356l2.91675,0.34333l0.46491,-3.94883l10.25343,1.20698zM292.22684,133.44748l-10.25353,-1.20708l0.13873,-1.17788c0.09587,-0.81522 0.29161,-1.4955 0.5871,-2.04074c0.29549,-0.54524 0.64141,-0.98793 1.03776,-1.32797c0.39645,-0.34004 0.81681,-0.59387 1.2612,-0.7615c0.44428,-0.16753 0.86146,-0.28144 1.25143,-0.34173c0.39007,-0.06019 0.73061,-0.0865 1.02162,-0.07873c0.29101,0.00767 0.48136,0.01684 0.57115,0.02741l5.12671,0.60354zM247.59069,142.67142l-2.73477,1.07055l-1.44936,-3.70247l-9.61391,3.76336l1.44936,3.70251l-2.73487,1.07055l-2.95223,-7.54182c-0.43093,-1.10094 -0.63832,-2.18834 -0.62198,-3.26217c0.01634,-1.07384 0.23071,-2.07562 0.64311,-3.00535c0.41246,-0.9297 1.00524,-1.76016 1.77833,-2.4914c0.77316,-0.73124 1.70319,-1.3096 2.79008,-1.73508l6.16388,-2.41287c0.18935,-0.07405 0.3819,-0.10903 0.57763,-0.10474c0.19573,0.00419 0.3814,0.04475 0.5571,0.12159c0.1756,0.07674 0.33137,0.18557 0.46741,0.32649c0.13604,0.14082 0.24108,0.30586 0.31522,0.49521zM318.04817,147.20319c-0.07674,0.19634 -0.18337,0.36494 -0.31991,0.50578c-0.13554,0.14085 -0.28901,0.24861 -0.45943,0.32329c-0.17142,0.07469 -0.35479,0.11414 -0.55012,0.11839c-0.19633,0.00425 -0.39166,-0.03206 -0.58799,-0.10893l-9.86635,-3.86215c-0.25314,-0.09886 -0.51325,-0.235 -0.78034,-0.40861c-0.26809,-0.17351 -0.51923,-0.37891 -0.75343,-0.6163c-0.23453,-0.23739 -0.44249,-0.5068 -0.62387,-0.80824c-0.18138,-0.30147 -0.31592,-0.63324 -0.40462,-0.9955c-0.0887,-0.36216 -0.11959,-0.75423 -0.09169,-1.17609c0.0279,-0.42176 0.13354,-0.86764 0.31692,-1.33744l2.89911,-7.40504c0.09866,-0.25244 0.2352,-0.51255 0.40861,-0.78024c0.17341,-0.26769 0.37871,-0.51883 0.6159,-0.75343c0.23819,-0.2345 0.50926,-0.44179 0.81422,-0.62158c0.30496,-0.17989 0.63782,-0.31413 1.00059,-0.40283c0.36177,-0.0887 0.75243,-0.11989 1.17101,-0.09358c0.41758,0.02621 0.86206,0.13135 1.33146,0.31522l11.11808,4.35216l-1.07035,2.73487l-11.11808,-4.35216c-0.35778,-0.14002 -0.66772,-0.15238 -0.93182,-0.03717c-0.2631,0.11521 -0.46741,0.35868 -0.61291,0.73031l-2.89014,7.38401c-0.13753,0.3506 -0.1475,0.66005 -0.0299,0.92843c0.1166,0.26828 0.3508,0.47109 0.70161,0.60833l8.50898,3.33104l1.34242,-3.429l-7.27818,-2.84928l1.07832,-2.7559l8.63555,3.38047c0.19633,0.07684 0.36476,0.18507 0.50428,0.32449c0.13952,0.13952 0.24516,0.29639 0.31891,0.47069c0.07308,0.17427 0.11262,0.35751 0.1186,0.54972c0.00498,0.19224 -0.0289,0.38309 -0.10265,0.57235zM232.7221,141.06799l9.61391,-3.76336l-2.31401,-5.91144l-4.807,1.88168c-0.08411,0.03299 -0.25643,0.11461 -0.51674,0.24477c-0.26041,0.13026 -0.54843,0.31373 -0.86415,0.55052c-0.31562,0.23679 -0.63005,0.53378 -0.94318,0.89086c-0.31303,0.35708 -0.56438,0.77894 -0.75393,1.26558c-0.18965,0.48664 -0.28632,1.04005 -0.29021,1.66024c-0.00392,0.62015 0.14371,1.31239 0.44289,2.07672zM195.27192,235c0,-44.03261 35.69546,-79.72806 79.72808,-79.72806c44.03281,0 79.72806,35.69545 79.72806,79.72806c0,44.03281 -35.69525,79.72806 -79.72806,79.72806c-44.03261,0 -79.72808,-35.69525 -79.72808,-79.72806zM322.87371,335.12449c0.07674,0.19633 0.11262,0.39266 0.10863,0.58799c-0.00399,0.19633 -0.04385,0.37871 -0.1186,0.55012c-0.07475,0.17042 -0.18238,0.3239 -0.3229,0.46043c-0.14052,0.13554 -0.30994,0.24217 -0.50627,0.31891l-9.86635,3.86183c-0.25214,0.09866 -0.53517,0.1754 -0.8501,0.23021c-0.31426,0.05448 -0.63816,0.07408 -0.97169,0.0588c-0.33286,-0.01495 -0.66872,-0.07176 -1.00657,-0.17042c-0.33785,-0.09767 -0.66174,-0.25015 -0.97268,-0.45545c-0.31094,-0.2063 -0.59995,-0.47339 -0.86605,-0.80226c-0.26609,-0.32788 -0.49033,-0.72752 -0.6747,-1.19692l-2.89911,-7.40474c-0.09833,-0.25247 -0.17474,-0.53584 -0.22922,-0.8501c-0.05481,-0.31493 -0.07375,-0.63882 -0.0588,-0.97169c0.01495,-0.33386 0.07375,-0.66972 0.1754,-1.00956c0.10165,-0.33884 0.25513,-0.66374 0.46143,-0.97468c0.2053,-0.31094 0.4704,-0.59896 0.79529,-0.86405c0.32589,-0.2641 0.72254,-0.48833 1.19293,-0.67271l11.11808,-4.35216l1.07035,2.73467l-11.11808,4.35216c-0.35778,0.14052 -0.59397,0.34183 -0.70958,0.60593c-0.11461,0.2631 -0.09966,0.58102 0.04584,0.95275l2.89014,7.38381c0.13753,0.3508 0.33984,0.58401 0.60892,0.70161c0.26809,0.1176 0.57703,0.10763 0.92784,-0.0299l8.50997,-3.33064l-1.34242,-3.4293l-7.27917,2.84928l-1.07832,-2.7556l8.63555,-3.38047c0.19633,-0.07674 0.39266,-0.11162 0.58999,-0.10365c0.19733,0.00797 0.3817,0.05083 0.55411,0.12856c0.17241,0.07873 0.32489,0.18636 0.46043,0.3229c0.13421,0.13753 0.23852,0.30097 0.31293,0.49033zM238.95146,341.34129l2.73477,1.07135l5.3651,-13.70625c0.07415,-0.18935 0.10903,-0.3817 0.10484,-0.57703c-0.00429,-0.19633 -0.04485,-0.3817 -0.12159,-0.5571c-0.07684,-0.1764 -0.18567,-0.33187 -0.32649,-0.46741c-0.14092,-0.13653 -0.30596,-0.24118 -0.49531,-0.31592l-6.16388,-2.41277c-1.08689,-0.42522 -2.16239,-0.63184 -3.22649,-0.61989c-1.06407,0.01196 -2.06316,0.21925 -2.99708,0.62188c-0.93395,0.40263 -1.77146,0.99261 -2.51253,1.76996c-0.74097,0.77735 -1.32697,1.71714 -1.7579,2.81739l-2.95223,7.54227l2.73477,1.07035l1.44936,-3.70237l9.61401,3.76316zM241.47136,334.90424l-9.61401,-3.76316l0.43233,-1.10423c0.29925,-0.76472 0.66081,-1.37332 1.0847,-1.82577c0.42385,-0.45345 0.87053,-0.79329 1.34013,-1.02251c0.4696,-0.22822 0.94049,-0.36775 1.41278,-0.41758c0.47229,-0.04883 0.90471,-0.05382 1.29728,-0.01296c0.39256,0.03986 0.72861,0.10066 1.00826,0.18238c0.27955,0.08072 0.46143,0.13753 0.54554,0.17042l4.807,1.88158zM272.05016,331.25868l-9.53667,14.55834c-0.14929,0.22424 -0.3506,0.39465 -0.60414,0.51026c-0.25354,0.1166 -0.52222,0.15746 -0.80625,0.12258c-0.27646,-0.03488 -0.52341,-0.13952 -0.74067,-0.31393c-0.21733,-0.1754 -0.37466,-0.39034 -0.47199,-0.6448l-5.67474,-16.4469l3.26197,0.40462l4.21154,12.28111l7.11015,-10.87491zM293.31234,345.77417l2.91725,-0.34383l-1.72123,-14.61714c-0.02382,-0.20231 -0.08361,-0.38867 -0.17959,-0.55909c-0.09587,-0.17042 -0.21905,-0.31493 -0.36954,-0.43352c-0.15049,-0.11959 -0.31981,-0.2053 -0.50817,-0.25912c-0.18826,-0.05382 -0.38339,-0.06877 -0.5853,-0.04485l-6.57388,0.77436c-1.15925,0.13554 -2.20538,0.46043 -3.1385,0.97169c-0.93302,0.51225 -1.71674,1.16503 -2.35108,1.96031c-0.63434,0.79529 -1.09526,1.71017 -1.38298,2.74464c-0.28762,1.03447 -0.36226,2.13871 -0.22404,3.3137l0.94687,8.04356l2.91675,-0.34383l-0.46491,-3.94853l10.25353,-1.20688zM292.5042,338.90858l-10.25353,1.20688l-0.13863,-1.17798c-0.09597,-0.81522 -0.06358,-1.52181 0.09717,-2.12077c0.16075,-0.59896 0.39435,-1.11021 0.70101,-1.53277c0.30655,-0.42356 0.65656,-0.76738 1.04982,-1.03347c0.39326,-0.26609 0.77256,-0.47438 1.13792,-0.62387c0.36535,-0.14849 0.69054,-0.25314 0.97537,-0.31293c0.28483,-0.06079 0.47219,-0.09567 0.56188,-0.10664l5.12671,-0.60294z"
          data-paper-data="{&quot;isBaseLogoContainer&quot;:true}" id="element-id-33106"></path>
      </g>
    </g>
  </g>
  <rect data-element-id="element-id-19486" stroke-width="2" fill="transparent"
    class="invisible-element-box grouping-element" x="146" y="106" width="258" height="258"
    data-element-name="isContainerElementsWrapper"></rect>
  <rect data-element-id="element-id-33106" stroke-width="2" fill="transparent"
    class="invisible-element-box individual-element" x="146" y="106" width="258" height="258"></rect>
  <rect data-element-id="element-id-80833" stroke-width="2" fill="transparent"
    class="invisible-element-box grouping-element" x="199" y="159" width="151" height="151"
    data-element-name="isIcon"></rect>
  <rect data-element-id="element-id-4374" stroke-width="2" fill="transparent"
    class="invisible-element-box individual-element" x="199" y="159" width="151" height="151"></rect>
</svg>